<?xml version="1.0" encoding="UTF-8"?>
<svg version="1.1" viewBox="0 0 1080 1080" width="1280" height="1280" xmlns="http://www.w3.org/2000/svg">
<path transform="translate(0)" d="m0 0h1080v1080h-1080z" fill="#FEFEFE"/>
<path transform="translate(592,475)" d="m0 0h12l11 4 4 2 10-5 4-1h12l11 4 10 9 4 8 1 4v93l-1 2h-20l-2-2-1-91-2-4-2-1h-8l-4 5-1 92-1 1h-21l-1-2-1-91-2-4-2-1h-8l-3 1-1 4-1 92-1 1h-21l-1-2v-93l4-10 7-8 8-5z"/>
<path transform="translate(406,506)" d="m0 0h15l10 4 8 7 4 8 1 6v41l-2 9-4 6-6 5-9 4-5 1h-8l-10-3-9-6-6-10-1-5v-10l3-9 4-6 10-6 5-1h16l-2-11-5-5h-11l-8 4-4-1-5-11 2-4 10-5z" fill="#FFC75C"/>
<path transform="translate(766,506)" d="m0 0h13l10 4 8 7 4 7 1 4v47l-3 9-8 8-10 4-10 1-10-2-8-4-7-8-3-8v-14l4-10 8-7 11-3h14l-1-11-5-5-5-1-10 2-5 3h-3l-5-11 1-4 9-5z"/>
<path transform="translate(703,506)" d="m0 0h12l10 4 7 6 4 8 1 5v25l-2 2-33 1v14l3 5 1 1h7l3-4 2-7h18l1 5-2 10-4 6-7 6-7 3-10 1-12-3-8-6-4-5-3-7v-49l4-9 7-7 8-4z"/>
<path transform="translate(474,506)" d="m0 0h15l10 4 7 6 4 8 1 3v67l-1 1h-20l-1-1-1-64-4-4-7 1-2 3-1 64-1 1h-20l-1-1v-66l4-10 8-8z" fill="#FFC75C"/>
<path transform="translate(232,506)" d="m0 0h15l10 4 8 7 4 9v68l-1 1h-20l-1-2-1-64-3-3h-6l-3 3-1 3-1 62-1 1h-20l-1-2v-63l3-9 4-6 6-5z" fill="#FFC75C"/>
<path transform="translate(298,506)" d="m0 0h15l10 4 7 8 3 8v9h-19l-3-8-1-1h-7l-3 3 1 7 10 6 12 7 8 9 3 6 1 8-2 9-6 9-7 4-5 2-6 1h-9l-9-2-8-5-4-5-2-6v-11l1-1h18l4 9 2 1h6l3-2 1-5-4-5-17-10-9-8-4-8-1-11 3-9 7-8 8-4z" fill="#FFC75C"/>
<path transform="translate(872,506)" d="m0 0h13l10 4 6 5 4 9 1 10-1 1h-18l-3-8-3-2-6 1-2 2v7l5 4 16 9 9 9 4 9v11l-5 10-7 6-8 3-11 1-12-2-8-5-4-5-2-5-1-11 2-2h18l3 8 2 2h7l3-3v-6l-6-5-14-8-9-8-4-8-1-11 4-11 8-7z"/>
<path transform="translate(541,486)" d="m0 0h4l1 2v19h9l2 2v16l-2 2h-9l1 47 9 1 2 2v17l-1 1h-16l-8-3-7-8-2-7v-50h-6l-2-2v-16l2-2h6v-15l7-3z" fill="#FFC75C"/>
<path transform="translate(362,486)" d="m0 0h4l1 2v19h9l2 2v16l-2 2h-9l1 47 9 1 2 2v17l-1 1h-16l-8-3-7-8-2-7v-50h-6l-2-2v-16l2-2h6v-15l7-3z" fill="#FFC75C"/>
<path transform="translate(177,477)" d="m0 0h22l1 3v112l-2 3h-20l-2-4v-111z" fill="#FFC75C"/>
<path transform="translate(812,477)" d="m0 0h20l1 2 1 94 5 2 6 2v16l-2 2h-14l-9-3-7-8-2-7v-99z"/>
<path transform="translate(413,557)" d="m0 0h9v15l-4 5h-8l-3-3-1-3v-7l3-5z" fill="#FEFEFE"/>
<path transform="translate(771,557)" d="m0 0h9v17l-3 3-6 1-5-3-2-8 2-7z" fill="#FEFEFE"/>
<path transform="translate(709,524)" d="m0 0 7 3 1 2v13h-15l-1-1v-9l3-6z" fill="#FEFEFE"/>
</svg>
